<svg width="25" height="24" viewBox="0 0 25 24" fill="none" xmlns="http://www.w3.org/2000/svg">
<path d="M3.80571 16.793L4.54914 16.6939L3.80571 16.793ZM21.1943 16.793L20.4508 16.6939L21.1943 16.793ZM21.5943 13.793L22.3377 13.8921L21.5943 13.793ZM3.40571 13.793L2.66229 13.8921L3.40571 13.793ZM9.35308 7.75H15.6469V6.25H9.35308V7.75ZM20.8508 13.6939L20.4508 16.6939L21.9377 16.8921L22.3377 13.8921L20.8508 13.6939ZM15.2469 21.25H9.75308V22.75H15.2469V21.25ZM4.54914 16.6939L4.14914 13.6939L2.66229 13.8921L3.06229 16.8921L4.54914 16.6939ZM9.75308 21.25C8.48201 21.25 7.59938 21.2486 6.92574 21.1631C6.27313 21.0803 5.91341 20.9284 5.6444 20.6929L4.65632 21.8214C5.23577 22.3288 5.92599 22.5483 6.73692 22.6512C7.52682 22.7514 8.52132 22.75 9.75308 22.75V21.25ZM3.06229 16.8921C3.22509 18.1131 3.35513 19.099 3.55888 19.8687C3.76805 20.659 4.07686 21.3141 4.65632 21.8214L5.6444 20.6929C5.37539 20.4573 5.17727 20.1209 5.00893 19.4849C4.83518 18.8285 4.71713 17.9538 4.54914 16.6939L3.06229 16.8921ZM20.4508 16.6939C20.2828 17.9538 20.1648 18.8285 19.991 19.4849C19.8227 20.1209 19.6246 20.4573 19.3556 20.6929L20.3437 21.8214C20.9231 21.3141 21.2319 20.659 21.4411 19.8687C21.6448 19.099 21.7749 18.1131 21.9377 16.8921L20.4508 16.6939ZM15.2469 22.75C16.4786 22.75 17.4731 22.7514 18.263 22.6512C19.074 22.5483 19.7642 22.3288 20.3437 21.8214L19.3556 20.6929C19.0866 20.9284 18.7268 21.0803 18.0742 21.1631C17.4006 21.2486 16.518 21.25 15.2469 21.25V22.75ZM15.6469 7.75C17.2653 7.75 18.3995 7.75175 19.245 7.87067C20.0694 7.98662 20.4863 8.19809 20.7663 8.51787L21.8949 7.52978C21.2785 6.82573 20.4494 6.5253 19.4539 6.38529C18.4795 6.24825 17.2201 6.25 15.6469 6.25V7.75ZM22.3377 13.8921C22.5456 12.3327 22.7138 11.0846 22.7067 10.1006C22.6995 9.09538 22.5113 8.23383 21.8949 7.52978L20.7663 8.51787C21.0463 8.83765 21.2008 9.2789 21.2068 10.1114C21.2129 10.9652 21.0647 12.0897 20.8508 13.6939L22.3377 13.8921ZM9.35308 6.25C7.77991 6.25 6.52047 6.24825 5.54609 6.38529C4.55061 6.5253 3.7215 6.82573 3.10509 7.52978L4.23367 8.51787C4.51364 8.19809 4.9306 7.98662 5.755 7.87067C6.60048 7.75175 7.7347 7.75 9.35308 7.75V6.25ZM4.14914 13.6939C3.93524 12.0897 3.78708 10.9652 3.79321 10.1114C3.79918 9.2789 3.9537 8.83765 4.23367 8.51787L3.10509 7.52978C2.48869 8.23383 2.30046 9.09538 2.29325 10.1006C2.28619 11.0846 2.45438 12.3327 2.66229 13.8921L4.14914 13.6939Z" fill="#1C274C"/>
<path d="M13.25 10.5C13.25 10.0858 12.9142 9.75 12.5 9.75C12.0858 9.75 11.75 10.0858 11.75 10.5H13.25ZM15.5 14.25C15.9142 14.25 16.25 13.9142 16.25 13.5C16.25 13.0858 15.9142 12.75 15.5 12.75V14.25ZM11.75 17C11.75 17.4142 11.4142 17.75 11 17.75V19.25C12.2426 19.25 13.25 18.2426 13.25 17H11.75ZM11 17.75C10.5858 17.75 10.25 17.4142 10.25 17H8.75C8.75 18.2426 9.75736 19.25 11 19.25V17.75ZM10.25 17C10.25 16.5858 10.5858 16.25 11 16.25V14.75C9.75736 14.75 8.75 15.7574 8.75 17H10.25ZM11 16.25C11.4142 16.25 11.75 16.5858 11.75 17H13.25C13.25 15.7574 12.2426 14.75 11 14.75V16.25ZM15.5 12.75C15.1946 12.75 14.6145 12.5314 14.0835 12.0603C13.5654 11.6006 13.25 11.0386 13.25 10.5H11.75C11.75 11.6182 12.3823 12.5562 13.088 13.1824C13.7809 13.797 14.7009 14.25 15.5 14.25V12.75ZM13.25 17V10.5H11.75V17H13.25Z" fill="#1C274C"/>
<path d="M7.03806 5.25H17.9619V3.75H7.03806V5.25ZM17.9619 5.25C18.8205 5.25 19.4714 6.02478 19.3232 6.87055L20.8007 7.12945C21.1097 5.36569 19.7525 3.75 17.9619 3.75V5.25ZM7.03806 3.75C5.24743 3.75 3.89023 5.36569 4.19928 7.12945L5.67677 6.87055C5.52857 6.02478 6.17939 5.25 7.03806 5.25V3.75Z" fill="#1C274C"/>
<path d="M16.2562 2.01142L16.3362 1.2657L16.2562 2.01142ZM18.0428 4.00435L18.7928 4.00598V4.00597L18.0428 4.00435ZM8.74368 2.01142L8.82371 2.75714L8.74368 2.01142ZM6.9571 4.00434L7.7071 4.00272L6.9571 4.00434ZM9.24105 2.75H15.7588V1.25H9.24105V2.75ZM15.7588 2.75C16.0397 2.75 16.1199 2.7511 16.1762 2.75714L16.3362 1.2657C16.1797 1.2489 15.9993 1.25 15.7588 1.25V2.75ZM18.7455 4.58165C18.7717 4.34266 18.7924 4.16338 18.7928 4.00598L17.2928 4.00271C17.2927 4.05932 17.285 4.13919 17.2545 4.41835L18.7455 4.58165ZM16.1762 2.75714C16.8123 2.8254 17.2942 3.36295 17.2928 4.00272L18.7928 4.00597C18.7958 2.59849 17.7357 1.41588 16.3362 1.2657L16.1762 2.75714ZM9.24105 1.25C9.00062 1.25 8.82017 1.2489 8.66366 1.2657L8.82371 2.75714C8.87999 2.7511 8.96019 2.75 9.24105 2.75V1.25ZM7.74543 4.41835C7.71486 4.13916 7.70722 4.05932 7.7071 4.00272L6.2071 4.00597C6.20744 4.16339 6.22817 4.34264 6.25435 4.58165L7.74543 4.41835ZM8.66366 1.2657C7.26421 1.41588 6.20404 2.59849 6.2071 4.00597L7.7071 4.00272C7.70571 3.36295 8.1876 2.8254 8.82371 2.75714L8.66366 1.2657Z" fill="#1C274C"/>
</svg>
