<svg width="24" height="24" viewBox="0 0 24 24" fill="none" xmlns="http://www.w3.org/2000/svg">
<path d="M22 13.9979C21.9711 17.4119 21.7815 19.294 20.5404 20.5352C19.0755 22 16.7179 22 12.0026 22C7.28733 22 4.9297 22 3.46485 20.5352C2 19.0703 2 16.7127 2 11.9974C2 7.28212 2 4.92448 3.46485 3.45963C4.70599 2.21848 6.58807 2.02895 10.0021 2" stroke="#4C4B63" stroke-width="1.5" stroke-linecap="round"/>
<path d="M22 7L22.5303 7.53033C22.8232 7.23744 22.8232 6.76256 22.5303 6.46967L22 7ZM17.5303 1.46967C17.2374 1.17678 16.7626 1.17678 16.4697 1.46967C16.1768 1.76256 16.1768 2.23744 16.4697 2.53033L17.5303 1.46967ZM16.4697 11.4697C16.1768 11.7626 16.1768 12.2374 16.4697 12.5303C16.7626 12.8232 17.2374 12.8232 17.5303 12.5303L16.4697 11.4697ZM8.25 15C8.25 15.4142 8.58579 15.75 9 15.75C9.41421 15.75 9.75 15.4142 9.75 15H8.25ZM10.3003 8.68042L10.8293 9.21205L10.3003 8.68042ZM10.6804 8.30029L11.212 8.82933L10.6804 8.30029ZM10.4908 8.49082L9.96049 7.96049L10.4908 8.49082ZM14 7.75H22V6.25H14V7.75ZM22.5303 6.46967L17.5303 1.46967L16.4697 2.53033L21.4697 7.53033L22.5303 6.46967ZM21.4697 6.46967L16.4697 11.4697L17.5303 12.5303L22.5303 7.53033L21.4697 6.46967ZM9.75 12C9.75 10.4485 10.507 9.5328 10.8293 9.21205L9.77125 8.1488C9.27703 8.64062 8.25 9.91621 8.25 12H9.75ZM14 6.25C11.9162 6.25 10.6406 7.27703 10.1488 7.77125L11.212 8.82933C11.5328 8.50701 12.4485 7.75 14 7.75V6.25ZM8.25 12V15H9.75V12H8.25ZM10.8293 9.21205C10.9549 9.08706 11.0194 9.02287 11.0211 9.02115L9.96049 7.96049C9.96092 7.96006 9.94615 7.97476 9.91361 8.00714C9.88189 8.0387 9.83448 8.08589 9.77125 8.1488L10.8293 9.21205ZM10.1488 7.77125C10.0859 7.83448 10.0387 7.88189 10.0071 7.91361C9.97476 7.94615 9.96006 7.96092 9.96049 7.96049L11.0211 9.02115C11.0229 9.01942 11.0871 8.95492 11.212 8.82933L10.1488 7.77125Z" fill="#4C4B63"/>
</svg>
